IKResults
version=1
nRows=9
nColumns=50
inDegrees=yes

Units are S.I. units (second, meters, Newtons, ...)
If the header above contains a line with 'inDegrees', this indicates whether rotational values are in degrees (yes) or radians (no).

endheader
time	pelvis_tilt	pelvis_list	pelvis_rotation	pelvis_tx	pelvis_ty	pelvis_tz	hip_flexion_r	hip_adduction_r	hip_rotation_r	knee_angle_r	knee_angle_r_beta	ankle_angle_r	subtalar_angle_r	mtp_angle_r	hip_flexion_l	hip_adduction_l	hip_rotation_l	knee_angle_l	knee_angle_l_beta	socket_flexion	socket_adduction	socket_rotation	socket_tx	socket_ty	socket_tz	pros_ankle_rx	pros_ankle_ry	pros_ankle_rz	pros_ankle_tx	pros_ankle_ty	pros_ankle_tz	foot_flex	lumbar_extension	lumbar_bending	lumbar_rotation	arm_flex_r	arm_add_r	arm_rot_r	elbow_flex_r	pro_sup_r	wrist_flex_r	wrist_dev_r	arm_flex_l	arm_add_l	arm_rot_l	elbow_flex_l	pro_sup_l	wrist_flex_l	wrist_dev_l
      0.90314000	      2.31210302	     -4.39085636	      2.05018812	      0.41774386	      1.04014842	      0.37657453	     10.80465643	      6.05558299	     -1.16133523	     24.99460957	      0.43623823	     11.23871316	      0.00000000	      0.00000000	     13.07645644	     -9.97501637	     -2.40632634	     67.67999184	      1.18123870	     -1.41770436	     -1.83696024	     19.12139242	      0.00000000	     -0.01412001	      0.00000000	      0.00000000	      0.00000000	      0.00000000	      0.00000000	      0.00000000	      0.00000000	     13.77640845	    -21.64815980	      3.64963325	      3.61539119	      0.00000000	     -8.65943667	      0.00000000	     76.54242171	     85.98948056	      0.00000000	      0.00000000	      0.00000000	     -8.65943667	      0.00000000	     76.54242171	     85.98948056	      0.00000000	      0.00000000
      0.90732000	      2.20214006	     -4.13617124	      1.98680919	      0.42291938	      1.04129290	      0.37674028	     10.34462555	      5.81923950	     -1.03365468	     24.55668935	      0.42859508	     11.22482497	      0.00000000	      0.00000000	     13.72099769	     -9.64086345	     -2.15481882	     67.45303842	      1.17727761	     -1.12871514	     -2.05328301	     18.78064994	      0.00000000	     -0.01398677	      0.00000000	      0.00000000	      0.00000000	      0.00000000	      0.00000000	      0.00000000	      0.00000000	     13.70928522	    -21.54057356	      3.28990426	      3.65614017	      0.00000000	     -8.66424220	      0.00000000	     76.54013919	     85.99361006	      0.00000000	      0.00000000	      0.00000000	     -8.66424220	      0.00000000	     76.54013919	     85.99361006	      0.00000000	      0.00000000
      0.91150000	      2.15858392	     -3.98456987	      1.86447065	      0.42788501	      1.04240141	      0.37684771	     10.01219854	      5.65853272	     -0.98915180	     24.44398591	      0.42662804	     11.24367513	      0.00000000	      0.00000000	     14.29604497	     -9.43652781	     -2.04600468	     67.22866142	      1.17336149	     -0.86757338	     -2.11124728	     18.33944307	      0.00000000	     -0.01384269	      0.00000000	      0.00000000	      0.00000000	      0.00000000	      0.00000000	      0.00000000	      0.00000000	     13.67013220	    -21.63560380	      3.23433340	      3.68737758	      0.00000000	     -8.66537752	      0.00000000	     76.53960037	     85.99458534	      0.00000000	      0.00000000	      0.00000000	     -8.66537752	      0.00000000	     76.53960037	     85.99458534	      0.00000000	      0.00000000
      0.91568000	      2.00451801	     -3.71646733	      1.83652032	      0.43316602	      1.04354817	      0.37695014	      9.40167845	      5.42855689	     -0.77929143	     23.62856191	      0.41239620	     11.07514864	      0.00000000	      0.00000000	     14.94935872	     -9.05463399	     -1.65313543	     66.90624677	      1.16773430	     -0.51302510	     -2.45768485	     18.08049168	      0.00000000	     -0.01372848	      0.00000000	      0.00000000	      0.00000000	      0.00000000	      0.00000000	      0.00000000	      0.00000000	     13.54048184	    -21.34726094	      2.71546985	      3.73599238	      0.00000000	     -8.67261198	      0.00000000	     76.53616776	     86.00079963	      0.00000000	      0.00000000	      0.00000000	     -8.67261198	      0.00000000	     76.53616776	     86.00079963	      0.00000000	      0.00000000
      0.91986000	      1.96302354	     -3.59454797	      1.80053623	      0.43828732	      1.04473575	      0.37702525	      8.76594842	      5.34732143	     -0.65164777	     22.94195602	      0.40041267	     10.83196125	      0.00000000	      0.00000000	     15.49249732	     -8.87096924	     -1.37636867	     66.54846771	      1.16148987	     -0.23852338	     -2.65936521	     17.69651384	      0.00000000	     -0.01356479	      0.00000000	      0.00000000	      0.00000000	      0.00000000	      0.00000000	      0.00000000	      0.00000000	     13.46477286	    -21.32896711	      2.52532072	      3.74462077	      0.00000000	     -8.68452126	      0.00000000	     76.53052455	     86.01102441	      0.00000000	      0.00000000	      0.00000000	     -8.68452126	      0.00000000	     76.53052455	     86.01102441	      0.00000000	      0.00000000
      0.92404000	      1.92066341	     -3.49477285	      1.67787052	      0.44315352	      1.04573709	      0.37710508	      8.47036188	      5.24204844	     -0.63367201	     22.88766998	      0.39946520	     10.87234693	      0.00000000	      0.00000000	     16.02822092	     -8.70683960	     -1.27389996	     66.25186624	      1.15631320	      0.10362617	     -2.65331139	     17.28823424	      0.00000000	     -0.01351732	      0.00000000	      0.00000000	      0.00000000	      0.00000000	      0.00000000	      0.00000000	      0.00000000	     13.45126941	    -21.44222038	      2.47131261	      3.77212419	      0.00000000	     -8.68547449	      0.00000000	     76.53007356	     86.01184230	      0.00000000	      0.00000000	      0.00000000	     -8.68547449	      0.00000000	     76.53007356	     86.01184230	      0.00000000	      0.00000000
      0.92822000	      1.79395638	     -3.18619308	      1.59307555	      0.44841151	      1.04680988	      0.37730628	      7.89031945	      4.95298163	     -0.43055344	     22.19189328	      0.38732160	     10.79696230	      0.00000000	      0.00000000	     16.56333632	     -8.31120181	     -1.02570354	     65.79670959	      1.14836922	      0.50674911	     -2.92677152	     17.02387700	      0.00000000	     -0.01337635	      0.00000000	      0.00000000	      0.00000000	      0.00000000	      0.00000000	      0.00000000	      0.00000000	     13.27248777	    -21.18336461	      1.91130000	      3.86338811	      0.00000000	     -8.69228398	      0.00000000	     76.52685221	     86.01768497	      0.00000000	      0.00000000	      0.00000000	     -8.69228398	      0.00000000	     76.52685221	     86.01768497	      0.00000000	      0.00000000
      0.93240000	      1.79245555	     -3.08424766	      1.51558072	      0.45355587	      1.04800508	      0.37740025	      7.17471763	      4.89532218	     -0.24534293	     21.43339179	      0.37408326	     10.47413120	      0.00000000	      0.00000000	     16.97269550	     -8.15933637	     -0.86782224	     65.24236965	      1.13869416	      0.73554487	     -3.03275564	     16.64504518	      0.00000000	     -0.01327951	      0.00000000	      0.00000000	      0.00000000	      0.00000000	      0.00000000	      0.00000000	      0.00000000	     13.21307085	    -21.21384215	      1.74352136	      3.93216697	      0.00000000	     -8.70778774	      0.00000000	     76.51952990	     86.03097934	      0.00000000	      0.00000000	      0.00000000	     -8.70778774	      0.00000000	     76.51952990	     86.03097934	      0.00000000	      0.00000000
      0.93659000	      1.73082741	     -2.88667969	      1.40241319	      0.45859867	      1.04904299	      0.37754731	      6.70708859	      4.70750805	     -0.10068218	     21.03595520	      0.36714668	     10.42153755	      0.00000000	      0.00000000	     17.41533482	     -7.88081180	     -0.72519696	     64.70277153	      1.12927640	      1.09648257	     -3.12755592	     16.37037540	      0.00000000	     -0.01317632	      0.00000000	      0.00000000	      0.00000000	      0.00000000	      0.00000000	      0.00000000	      0.00000000	     13.08016739	    -21.16288483	      1.42653507	      4.01104425	      0.00000000	     -8.71655681	      0.00000000	     76.51539608	     86.03849345	      0.00000000	      0.00000000	      0.00000000	     -8.71655681	      0.00000000	     76.51539608	     86.03849345	      0.00000000	      0.00000000
